<?xml version="1.0" standalone="no"?>
<!DOCTYPE svg PUBLIC "-//W3C//DTD SVG 1.1//EN" "http://www.w3.org/Graphics/SVG/1.1/DTD/svg11.dtd" >
<!--
2013-9-30: Created.
-->
<svg>
<metadata>
Created by iconfont
</metadata>
<defs>

<font id="iconfont" horiz-adv-x="1024" >
  <font-face
    font-family="iconfont"
    font-weight="500"
    font-stretch="normal"
    units-per-em="1024"
    ascent="896"
    descent="-128"
  />
    <missing-glyph />
    
    <glyph glyph-name="daifahuo" unicode="&#58900;" d="M959.704137 356.138578c-2.789533 0.143263-5.583159 0.410346-8.372691 0.410346-292.888653 0.01842-585.776284 0.01842-878.663914 0-2.791579 0-5.582135-0.267083-8.372691-0.410346 0 111.809505 0 223.616964 0 335.427492 298.468742 0 596.938508 0 895.409296 0C959.704137 579.755542 959.704137 467.948083 959.704137 356.138578zM119.811248 635.626014c0-3.239787 0-5.564739 0-7.891737 0-69.464071 0.11154-138.929166-0.166799-208.392214-0.029676-7.15905 2.515287-8.438183 8.881274-8.436136 255.637238 0.124843 511.275499 0.13303 766.91376-0.031722 7.135514-0.005117 8.939603 2.073218 8.911974 9.137101-0.274246 69.228711-0.162706 138.460492-0.180102 207.690226-0.002047 2.505054-0.208754 5.010107-0.341784 7.924483C642.443399 635.626014 381.579113 635.626014 119.811248 635.626014zM148.50373-91.56607c0.137123 3.260254 0.396019 6.523577 0.397043 9.783831 0.020466 133.094274 0.017396 266.185478 0.017396 399.277706 0 2.990101 0 5.981225 0 10.025331 10.1645 0 19.672038 0 29.181623 0 5.612834 0 11.273764-0.453325 16.829294 0.113587 6.994298 0.714268 8.529257-2.111081 8.518001-8.703219-0.183172-114.145713-0.137123-228.288356-0.12382-342.435093 0.002047-15.137769-0.512676-12.521175 12.20395-12.527314 197.649546-0.054235 395.299091-0.054235 592.947614 0 12.713556 0.004093 12.199856-2.608407 12.20088 12.529361 0.013303 113.679086 0.00614 227.354078 0.010233 341.033164 0 9.983375 0.014326 9.986445 9.777691 9.989515 14.47262 0.002047 28.939099 0 44.61922 0 0-3.496637 0-6.411013 0-9.326413 0-133.325541-0.004093-266.651083 0.019443-399.97867 0-3.258207 0.25685-6.52153 0.396019-9.781784C633.163035-91.56607 390.833895-91.56607 148.50373-91.56607zM289.628912 299.248893c18.029632 0 35.273365 0 53.620221 0 0-2.969635 0-5.67014 0-8.372691 0-31.798217 0.166799-63.59848-0.135076-95.395674-0.061398-6.445806 1.828648-8.280594 8.283664-8.268314 107.0849 0.184195 214.169801 0.188288 321.256748-0.00614 6.54302-0.01228 8.283664 1.968841 8.225335 8.326643-0.286526 31.562856-0.12996 63.130829-0.12996 94.693686 0 2.76395 0 5.5279 0 8.79634 18.043958 0 35.46063 0 53.723575 0 0.154519-2.321882 0.459464-4.779863 0.460488-7.236821 0.027629-50.269917-0.070608-100.539834 0.143263-150.807704 0.025583-5.976108-1.370207-8.02886-7.737218-8.020674-143.559627 0.178055-287.119253 0.148379-430.67888 0.085958-4.726651 0-7.729032 0.228197-7.698333 6.553253 0.249687 51.439556 0.138146 102.876042 0.163729 154.315598C289.126468 295.497453 289.417087 297.084601 289.628912 299.248893z"  horiz-adv-x="1024" />

    
    <glyph glyph-name="44" unicode="&#59046;" d="M648.533333 759.466667 386.844444 759.466667c-56.558933 0-102.4-45.841067-102.4-102.4l0-534.755556c0-56.558933 45.841067-102.4 102.4-102.4l261.688889 0c56.558933 0 102.4 45.841067 102.4 102.4L750.933333 657.066667C750.933333 713.6256 705.092267 759.466667 648.533333 759.466667zM517.688889 65.422222c-15.712711 0-28.444444 12.731733-28.444444 28.444444 0 15.712711 12.731733 28.444444 28.444444 28.444444s28.444444-12.731733 28.444444-28.444444C546.133333 78.153956 533.4016 65.422222 517.688889 65.422222zM694.044444 156.444444 341.333333 156.444444 341.333333 622.933333l352.711111 0L694.044444 156.444444z"  horiz-adv-x="1024" />

    
    <glyph glyph-name="shouji-copy" unicode="&#58905;" d="M773.759 889.791h-484.379c0 0-69.558 1.108-69.558-71.942l-0.362-868.033c0 0-6.527-71.605 66.307-71.605h491.219c0 0 67.414-1.060 67.414 68.691v870.947c0.025 0 2.119 71.942-70.642 71.942v0zM461.806 854.867h139.069v-34.828h-139.069v34.828zM409.637 854.867c9.634 0 17.413-7.756 17.413-17.39s-7.756-17.461-17.413-17.461c-9.586 0-17.365 7.804-17.365 17.461 0.025 9.634 7.779 17.39 17.365 17.39v0zM531.389-51.991c-19.244 0-34.779 15.607-34.779 34.876 0 19.244 15.559 34.899 34.779 34.899 19.196 0 34.779-15.655 34.779-34.899 0-19.268-15.583-34.876-34.779-34.876v0zM776.239 87.558h-489.749v697.605h489.749v-697.605zM776.239 87.558z"  horiz-adv-x="1024" />

    
    <glyph glyph-name="fuwu" unicode="&#59096;" d="M864 160C811.008 160 768 203.008 768 256L768 384C768 425.664 794.88 460.288 832 473.536L832 480C832 656.704 688.704 800 512 800 335.296 800 192 656.704 192 480L192 473.536C229.12 460.288 256 425.664 256 384L256 256C256 203.008 212.992 160 160 160 107.008 160 64 203.008 64 256L64 384C64 425.664 90.88 460.288 128 473.536L128 480C128 692.096 299.904 864 512 864 724.096 864 896 692.096 896 480L896 473.536C933.12 460.288 960 425.664 960 384L960 256C960 203.008 916.992 160 864 160ZM160 416C142.336 416 128 401.664 128 384L128 256C128 238.336 142.336 224 160 224 177.664 224 192 238.336 192 256L192 384C192 401.664 177.664 416 160 416ZM896 384C896 401.664 881.664 416 864 416 846.336 416 832 401.664 832 384L832 256C832 238.336 846.336 224 864 224 881.664 224 896 238.336 896 256L896 384ZM608-96 480-96C462.336-96 448-81.664 448-64L448 0C448 17.664 462.336 32 480 32L608 32C625.664 32 640 17.664 640 0L640-29.248C748.416-15.808 832 63.36 832 160L864 160 896 160C896 18.624 767.04-96 608-96Z"  horiz-adv-x="1024" />

    
    <glyph glyph-name="daifahuo1" unicode="&#59014;" d="M945.775304 834.025739l-845.913043 0c-49.174261 0-89.043478-39.846957-89.043478-89.043478l0.26713-155.826087c1.380174-47.949913 40.470261-86.483478 88.776348-86.483478l0-514.782609c0-49.174261 39.869217-89.043478 89.043478-89.043478l667.826087 0c49.174261 0 89.043478 39.869217 89.043478 89.043478l0 400.695652c0 12.288-9.97287 22.26087-22.26087 22.26087s-22.26087-9.97287-22.26087-22.26087l0-400.695652c0-24.576-19.945739-44.521739-44.521739-44.521739l-667.826087 0c-24.576 0-44.521739 19.945739-44.521739 44.521739L144.384 502.672696l801.391304 0c48.306087 0 87.663304 37.576348 89.043478 85.570783L1034.818783 744.982261C1034.818783 794.178783 994.949565 834.025739 945.775304 834.025739zM990.297043 591.716174c0-24.576-19.945739-44.521739-44.521739-44.521739l-845.913043 0c-24.576 0-44.521739 19.945739-44.521739 44.521739L55.340522 744.982261c0 24.598261 19.945739 44.521739 44.521739 44.521739l267.130435 0 0-0.222609 44.521739 0 0 0.222609 222.608696 0 0-0.222609 44.521739 0 0 0.222609 267.130435 0c24.576 0 44.521739-19.945739 44.521739-44.521739L990.297043 591.716174zM277.949217 410.846609c-12.288 0-22.26087-9.97287-22.26087-22.26087 0-12.310261 9.97287-22.26087 22.26087-22.26087l489.73913 0c12.288 0 22.26087 9.950609 22.26087 22.26087 0 12.288-9.97287 22.26087-22.26087 22.26087L277.949217 410.846609z"  horiz-adv-x="1035" />

    
    <glyph glyph-name="mimakejian" unicode="&#58967;" d="M511.998977 667.943934c-246.430552 0-446.197318-202.817242-446.197318-283.943934s199.765743-283.943934 446.197318-283.943934S958.197318 302.873308 958.197318 384 758.429529 667.943934 511.998977 667.943934L511.998977 667.943934zM511.998977 181.183781c-112.024399 0-202.816219 90.791819-202.816219 202.816219 0 111.995747 90.791819 202.787566 202.816219 202.787566 112.025423 0 202.817242-90.791819 202.817242-202.787566C714.816219 271.976624 624.024399 181.183781 511.998977 181.183781L511.998977 181.183781zM511.998977 524.835585c-77.775364 0-140.835585-63.059198-140.835585-140.835585 0-77.802994 63.060221-140.835585 140.835585-140.835585 77.776388 0 140.835585 63.033615 140.835585 140.835585C652.836609 461.776388 589.775364 524.835585 511.998977 524.835585L511.998977 524.835585z"  horiz-adv-x="1024" />

    
    <glyph glyph-name="mimakejian1" unicode="&#58937;" d="M481.08899 634.370281C231.953839 634.370281 65.522296 385.029446 65.522296 385.029446s146.299017-249.336742 415.566694-249.336742C751.410672 135.692704 896.650567 385.029446 896.650567 385.029446S751.410672 634.370281 481.08899 634.370281L481.08899 634.370281zM481.294674 237.795127c-80.329537 0-145.447627 65.123206-145.447627 145.450696 0 80.329537 65.119113 145.447627 145.447627 145.447627 80.32749 0 145.446603-65.119113 145.446603-145.447627C626.742301 302.91731 561.623187 237.795127 481.294674 237.795127L481.294674 237.795127zM481.294674 466.356706c-21.75856 0-43.385113-8.956999-58.770522-24.341385-15.384385-15.389502-24.341385-37.011962-24.341385-58.769498 0-21.76163 8.956999-43.38409 24.341385-58.772568 15.385409-15.384385 37.011962-24.341385 58.770522-24.341385 21.756513 0 43.38409 8.956999 58.768475 24.341385 15.385409 15.389502 24.346501 37.011962 24.346501 58.772568 0 21.757536-8.961092 43.379996-24.346501 58.769498C524.678764 457.399707 503.052211 466.356706 481.294674 466.356706L481.294674 466.356706z"  horiz-adv-x="1024" />

    
    <glyph glyph-name="xiaoxi" unicode="&#58888;" d="M124.8-44.8c-12.8 0-25.6 9.6-32 22.4s-3.2 28.8 6.4 38.4c22.4 22.4 44.8 57.6 60.8 86.4-83.2 80-131.2 179.2-131.2 288 3.2 230.4 217.6 422.4 483.2 422.4s480-188.8 480-422.4-214.4-422.4-480-422.4c-54.4 0-108.8 9.6-163.2 25.6-57.6-16-156.8-38.4-224-38.4zM512 742.4c-227.2 0-409.6-156.8-409.6-352 0-96 44.8-185.6 128-252.8 12.8-9.6 16-28.8 9.6-44.8-9.6-16-22.4-38.4-35.2-57.6 54.4 9.6 112 22.4 137.6 28.8 6.4 3.2 12.8 0 19.2 0 48-16 99.2-25.6 150.4-25.6 227.2 0 409.6 156.8 409.6 352s-182.4 352-409.6 352zM288 326.4c-32 0-57.6 25.6-57.6 57.6s25.6 57.6 57.6 57.6 57.6-25.6 57.6-57.6-22.4-57.6-57.6-57.6zM512 326.4c-32 0-57.6 25.6-57.6 57.6s25.6 57.6 57.6 57.6 57.6-25.6 57.6-57.6-25.6-57.6-57.6-57.6zM736 326.4c-32 0-57.6 25.6-57.6 57.6s25.6 57.6 57.6 57.6 57.6-25.6 57.6-57.6-25.6-57.6-57.6-57.6z"  horiz-adv-x="1024" />

    
    <glyph glyph-name="mimabukejian" unicode="&#59075;" d="M523.060 605.314c113.227 0 204.779-91.994 204.779-204.779 0-26.539-5.308-51.747-14.596-75.19l119.858-119.858c61.919 51.747 110.572 118.534 140.648 194.609-70.767 180.009-245.912 307.39-450.692 307.39-57.498 0-112.34-10.173-163.205-28.749l88.458-88.458c22.997 9.731 48.21 15.041 74.747 15.041zM113.501 716.77l112.34-112.34c-87.131-68.111-149.933-164.090-175.145-274.222 92.438-110.128 267.584-237.509 472.364-237.509 63.691 0 124.283 12.382 179.569 34.496l137.11-137.11 52.189 52.189-726.681 726.681-51.747-52.189zM339.95 490.322l63.691-63.691c-2.212-8.4-3.096-17.69-3.096-26.539 0-68.111 54.844-122.957 122.957-122.957 8.845 0 18.134 1.329 26.539 3.096l63.691-63.691c-27.424-13.712-57.94-21.671-90.226-21.671-113.227 0-204.779 91.994-204.779 204.779-0.44 33.174 7.519 63.246 21.234 90.668zM516.421 522.165l129.148-129.148 0.883 6.634c0 68.111-54.844 122.957-122.957 122.957l-7.079-0.44z"  horiz-adv-x="1024" />

    
    <glyph glyph-name="message" unicode="&#58880;" d="M511.989 0.003c-32.747 0-85.335 0-85.335 0l-234.65-128.003v234.65c-116.973 82.114-192.004 199.961-192.004 341.362-0 247.408 229.231 447.988 511.989 447.988s511.989-200.58 511.989-447.988c0.021-247.45-229.21-448.009-511.989-448.009v0zM511.989 832.020c-247.408 0-448.031-171.929-448.031-384.008 0-130.136 76.524-250.544 192.047-319.985v-142.232l170.628 78.21c0 0 47.98 0 85.335 0 247.408 0 448.031 171.929 448.031 384.008 0.021 212.1-200.602 384.008-448.009 384.008v0zM768.016 384.011c-35.371 0-64.023 28.651-64.023 64.023s28.651 64.023 64.023 64.023c35.329 0 63.98-28.651 63.98-64.023s-28.651-64.023-63.98-64.023v0zM511.989 384.011c-35.371 0-64.023 28.651-64.023 64.023s28.651 64.023 64.023 64.023c35.371 0 64.023-28.651 64.023-64.023s-28.651-64.023-64.023-64.023v0zM255.984 384.011c-35.329 0-63.98 28.651-63.98 64.001s28.651 64.023 63.98 64.023c35.371 0 64.023-28.651 64.023-64.023s-28.673-64.001-64.023-64.001v0z"  horiz-adv-x="1024" />

    
    <glyph glyph-name="m_v_4" unicode="&#58881;" d="M590 396.666h102v-66h-99v66zM227 396.666h300v-66h-300v66zM857 762.666h-663c-54 0-99-45-99-99v-498c0-54 45-99 99-99h663c54 0 99 45 99 99v498c0 54-45 99-99 99zM923 165.666c0-36-30-66-66-66h-663c-36 0-66 30-66 66v366h795v-366zM923 594.666h-795v69c0 36 30 66 66 66h663c36 0 66-30 66-66v-69zM227 264.666h264v-66h-264v66z"  horiz-adv-x="1216" />

    
    <glyph glyph-name="daifahuo2" unicode="&#58942;" d="M984.436364 826.181818H58.181818C30.254545 826.181818 0 809.890909 0 781.963636v-137.309091c0-27.927273 20.945455-34.909091 48.872727-34.90909h9.309091V-9.309091c0-27.927273 20.945455-48.872727 48.872727-48.872727h809.89091c27.927273 0 48.872727 23.272727 48.872727 48.872727V602.763636v9.309091h9.309091c27.927273 0 48.872727 6.981818 48.872727 34.909091V784.290909c0 25.6-11.636364 41.890909-39.563636 41.890909z m-72.145455-823.854545c0-4.654545-4.654545-9.309091-9.309091-9.309091H118.690909c-4.654545 0-9.309091 4.654545-9.309091 9.309091V593.454545c0 4.654545 4.654545 9.309091 9.309091 9.309091h786.618182c4.654545 0 9.309091-4.654545 9.309091-9.309091l-2.327273-591.127272zM972.8 663.272727c0-4.654545-4.654545-9.309091-9.309091-9.309091H60.509091c-4.654545 2.327273-9.309091 4.654545-9.309091 9.309091V763.345455c0 4.654545 4.654545 9.309091 9.309091 9.30909h902.981818c4.654545 0 9.309091-4.654545 9.309091-9.30909V663.272727zM740.072727 505.018182H258.327273c-13.963636 0-25.6-11.636364-25.6-25.6 0-13.963636 11.636364-25.6 25.6-25.6h481.745454c13.963636 0 25.6 11.636364 25.6 25.6 0 13.963636-11.636364 25.6-25.6 25.6z"  horiz-adv-x="1024" />

    
    <glyph glyph-name="goback" unicode="&#58898;" d="M512 837.859c-250.634 0-453.859-203.151-453.859-453.895 0-250.634 203.151-453.82 453.859-453.821 250.634 0 453.859 203.151 453.859 453.821s-203.151 453.895-453.859 453.895zM512-29.539c-228.038 0-413.539 185.501-413.539 413.501 0 228.038 185.501 413.539 413.539 413.539s413.539-185.501 413.539-413.539c0-228-185.501-413.5-413.539-413.501zM600.468 131.040l-249.637 249.637 249.637 249.563 42.72-42.757-206.769-206.806 206.769-206.806z"  horiz-adv-x="1024" />

    
    <glyph glyph-name="mimakejian2" unicode="&#58890;" d="M504.32 664.32c-192 0-355.968-119.424-422.4-288 66.432-168.576 230.4-288 422.4-288s355.968 119.424 422.4 288c-66.432 168.576-230.4 288-422.4 288z m0-480c-105.984 0-192 86.016-192 192s86.016 192 192 192 192-86.016 192-192-86.016-192-192-192z m0 307.2c-63.744 0-115.2-51.456-115.2-115.2s51.456-115.2 115.2-115.2 115.2 51.456 115.2 115.2-51.456 115.2-115.2 115.2z"  horiz-adv-x="1024" />

    
    <glyph glyph-name="mima" unicode="&#59108;" d="M744.192 443.648h-42.624v108.544c0 102.144-85.248 185.216-189.952 185.216-104.704 0-189.952-83.072-189.952-185.216v-108.544h-41.856c-34.304 0-62.208-27.136-62.208-60.672v-291.584c0-33.536 27.904-60.672 62.208-60.672h464.384c34.304 0 62.208 27.136 62.208 60.672V382.976c0 33.536-27.904 60.672-62.208 60.672z m-343.168 108.416c0 59.52 49.664 107.904 110.592 107.904 60.928 0 110.592-48.384 110.592-107.904v-108.544H401.024v108.544z m151.68-382.08c0-23.04-19.2-41.728-42.752-41.728-23.68 0-42.752 18.688-42.752 41.728v126.208c0 23.04 19.2 41.728 42.752 41.728 23.68 0 42.752-18.688 42.752-41.728v-126.208z"  horiz-adv-x="1024" />

    
    <glyph glyph-name="mimakejian3" unicode="&#58886;" d="M512 147.692308c-217.521231 0-472.615385 137.846154-472.615385 236.307692s255.094154 236.307692 472.615385 236.307692 472.615385-137.846154 472.615385-236.307692-255.094154-236.307692-472.615385-236.307692z m0 39.384615a196.923077 196.923077 0 1 1 0 393.846154 196.923077 196.923077 0 0 1 0-393.846154z m0 78.769231a118.153846 118.153846 0 1 0 0 236.307692 118.153846 118.153846 0 0 0 0-236.307692z"  horiz-adv-x="1024" />

    
    <glyph glyph-name="mm" unicode="&#58938;" d="M810.568003 447.980173L810.568003 533.2860479999999c0 164.893514-85.684498 298.56698-298.569026 298.56698-214.355019 0-298.569026-133.673465-298.569026-298.56698l0-85.30485099999999c-23.557532 0-42.652426-19.097964-42.652426-42.654472l0-426.526303c0-23.554462 19.095917-42.650379 42.652426-42.650379l597.137029 0c23.557532 0 42.652426 19.095917 42.652426 42.650379L853.219405 405.325701C853.221452 428.88221 834.1255349999999 447.980173 810.568003 447.980173zM298.736848 533.2860479999999c0 117.78152 63.019289 213.263152 213.263152 213.263152 147.422607 0 213.263152-95.482655 213.263152-213.263152l0-85.30485099999999L298.736848 447.981197 298.736848 533.2860479999999zM533.325701 152.099373l0-87.995123-42.652426 0 0 87.995123c-36.791951 9.469676-63.97915 42.86732-63.97915 82.617649 0 47.111994 38.192857 85.30485099999999 85.30485099999999 85.30485099999999 47.111994 0 85.30485099999999-38.192857 85.30485099999999-85.30485099999999C597.3048510000001 194.96669299999996 570.118676 161.56904799999995 533.325701 152.099373z"  horiz-adv-x="1024" />

    
    <glyph glyph-name="xiaoxi1" unicode="&#58914;" d="M512 894.8736C235.20256 894.8736 9.99936 696.50432 9.99936 452.7872c0-131.43552 65.39264-254.336 179.74784-338.68288v-240.97792l237.47072 144.14848c28.80512-4.3776 57.3952-6.57408 84.8896-6.57408 276.80256 0 502.00064 198.3744 502.00064 442.0864C1014.00064 696.50432 788.79744 894.8736 512 894.8736z m0-838.6048c-27.60704 0-56.51968 2.41152-85.87776 7.34208l-8.32512 1.41824-182.48704-110.848v183.47008l-9.74848 6.79424c-108.00128 75.90912-169.99936 188.1856-169.99936 308.34176 0 218.63424 204.83072 396.41088 456.43264 396.41088 251.71456 0 456.43264-177.88416 456.43264-396.41088 0-218.5216-204.71808-396.5184-456.42752-396.5184zM277.0432 523.76576c-37.7856 0-68.45952-30.6688-68.45952-68.45952S239.2576 386.84672 277.0432 386.84672c37.79072 0 68.45952 30.6688 68.45952 68.45952s-30.6688 68.45952-68.45952 68.45952zM512 523.76576c-37.79072 0-68.45952-30.6688-68.45952-68.45952S474.20928 386.84672 512 386.84672s68.45952 30.6688 68.45952 68.45952-30.6688 68.45952-68.45952 68.45952zM746.95168 523.76576c-37.79072 0-68.45952-30.6688-68.45952-68.45952s30.6688-68.45952 68.45952-68.45952 68.45952 30.6688 68.45952 68.45952-30.56128 68.45952-68.45952 68.45952z"  horiz-adv-x="1024" />

    
    <glyph glyph-name="xiaoxi2" unicode="&#58882;" d="M511.578 84.823h-66.523l-183.001-99.845v182.97c-91.21 64.048-149.731 155.959-149.731 266.227 0 192.905 178.775 349.321 399.256 349.321 220.505 0 399.256-156.417 399.256-349.321 0.027-192.979-178.725-349.352-399.257-349.352m0 648.779c-192.933 0-349.365-134.058-349.365-299.427 0-101.491 59.695-195.398 149.763-249.539v-110.923l133.051 61h66.551c192.905 0 349.361 134.058 349.361 299.461 0.029 165.37-156.427 299.428-349.361 299.428m199.654-349.347c-27.572 0-49.919 22.317-49.919 49.92 0 27.587 22.347 49.918 49.919 49.918 27.575 0 49.895-22.331 49.895-49.918 0-27.603-22.319-49.92-49.895-49.92m-199.654 0c-27.575 0-49.922 22.317-49.922 49.92 0 27.587 22.347 49.918 49.922 49.918 27.6 0 49.919-22.331 49.919-49.918 0-27.603-22.319-49.92-49.919-49.92m-199.63 0c-27.571 0-49.895 22.317-49.895 49.92 0 27.56 22.323 49.918 49.895 49.918 27.6 0 49.922-22.359 49.922-49.918 0.001-27.603-22.346-49.92-49.922-49.92"  horiz-adv-x="1024" />

    
    <glyph glyph-name="daishouhuo" unicode="&#58883;" d="M849.92 529.066667l-42.666667 39.253333c-22.186667 20.48-52.906667 32.426667-83.626666 32.426667h-116.053334v59.733333c0 46.08-35.84 83.626667-81.92 83.626667H220.16c-46.08 0-83.626667-37.546667-81.92-83.626667v-539.306667h93.866667c0-51.2 42.666667-93.866667 93.866666-93.866666s93.866667 42.666667 93.866667 93.866666h187.733333c0-51.2 42.666667-93.866667 93.866667-93.866666s93.866667 42.666667 93.866667 93.866666h93.866666V436.906667c1.706667 34.133333-13.653333 68.266667-39.253333 92.16z m-32.426667-35.84c15.36-15.36 25.6-35.84 25.6-58.026667v-75.093333h-93.866666v187.733333c10.24-3.413333 18.773333-8.533333 27.306666-15.36l40.96-39.253333zM325.973333 75.093333c-25.6 0-47.786667 20.48-49.493333 47.786667 0 25.6 20.48 47.786667 47.786667 49.493333 25.6 0 47.786667-20.48 49.493333-47.786666 0-29.013333-22.186667-49.493333-47.786667-49.493334z m235.52 95.573334h-153.6c-25.6 44.373333-81.92 61.44-126.293333 35.84-15.36-8.533333-27.306667-20.48-35.84-35.84h-59.733333V660.48c0 20.48 15.36 35.84 35.84 35.84h305.493333c20.48 0 35.84-17.066667 35.84-35.84l-1.706667-489.813333z m139.946667-95.573334c-25.6 0-47.786667 20.48-49.493333 47.786667 0 25.6 20.48 47.786667 47.786666 49.493333 25.6 0 47.786667-20.48 49.493334-47.786666 0-29.013333-20.48-49.493333-47.786667-49.493334z m81.92 95.573334c-25.6 44.373333-81.92 61.44-126.293333 35.84-15.36-8.533333-27.306667-20.48-35.84-35.84h-11.946667V552.96h93.866667v-238.933333h141.653333v-143.36h-61.44z"  horiz-adv-x="1024" />

    
    <glyph glyph-name="fanhui" unicode="&#58893;" d="M511.309042-128c-281.910931 0-511.309042 229.398111-511.309042 511.309042s229.398111 511.309042 511.309042 511.309042 511.309042-229.398111 511.309042-511.309042-229.398111-511.309042-511.309042-511.309042z m0 967.34143c-251.508772 0-456.032389-204.523617-456.032389-456.032388s204.523617-456.032389 456.032389-456.032389 456.032389 204.523617 456.032388 456.032389-204.523617 456.032389-456.032388 456.032388zM614.952767 65.468286c-6.909582 0-13.819163 2.763833-19.346829 8.291498l-290.202429 290.202429c-5.527665 5.527665-8.291498 12.437247-8.291498 19.346829s2.763833 13.819163 8.291498 19.346828l290.202429 290.20243c11.055331 11.055331 27.638327 11.055331 38.693657 0 11.055331-11.055331 11.055331-27.638327 0-38.693658l-270.8556-270.8556 270.8556-270.855601c11.055331-11.055331 11.055331-27.638327 0-38.693657-5.527665-5.527665-12.437247-8.291498-19.346828-8.291498z"  horiz-adv-x="1024" />

    
    <glyph glyph-name="daishouhuo1" unicode="&#59054;" d="M1170.090667 407.552v-47.104h-188.074667c-38.912 0-70.656 31.402667-70.656 70.656V619.178667h-70.656v-493.568h71.338667v-47.104H538.965333v47.104h254.976V642.730667c0 64.853333-52.565333 117.418667-117.418666 117.418666h-305.493334c-64.853333 0-117.418667-52.565333-117.418666-117.418666v-399.701334c0-64.853333 52.565333-117.418667 117.418666-117.418666v-47.104c-90.794667 0-164.522667 73.728-164.522666 164.522666V642.730667C206.506667 733.525333 279.893333 807.253333 371.029333 807.253333h305.493334c81.92 0 151.210667-60.074667 162.816-140.970666h159.402666c23.893333 0 46.08-11.946667 59.050667-31.744l147.797333-225.621334c7.509333-11.605333 11.605333-24.917333 11.605334-38.570666v-221.184c0-38.912-31.402667-70.656-70.656-70.656h-47.104v47.104h47.104c12.970667 0 23.552 10.581333 23.552 23.552V370.346667c0 4.437333-1.365333 9.216-3.754667 12.970666L1150.293333 407.893333c0-0.341333 19.797333-0.341333 19.797334-0.341333z m-151.552 201.045333c-4.437333 6.485333-11.605333 10.581333-19.797334 10.581334h-40.277333v-188.074667c0-12.970667 10.581333-23.552 23.552-23.552H1150.293333l-131.754666 201.045333zM888.149333 78.506667c0 64.853333 52.565333 117.418667 117.418667 117.418666s117.418667-52.565333 117.418667-117.418666-52.565333-117.418667-117.418667-117.418667c-64.853333-0.341333-117.418667 52.565333-117.418667 117.418667z m188.074667 0c0 38.912-31.402667 70.656-70.656 70.656s-70.656-31.402667-70.656-70.656c0-38.912 31.402667-70.656 70.656-70.656s70.656 31.744 70.656 70.656z m-752.298667 0c0 64.853333 52.565333 117.418667 117.418667 117.418666s117.418667-52.565333 117.418667-117.418666-52.565333-117.76-117.418667-117.76-117.418667 52.906667-117.418667 117.76z m188.074667 0c0 38.912-31.402667 70.656-70.656 70.656s-70.656-31.402667-70.656-70.656c0-38.912 31.402667-70.656 70.656-70.656s70.656 31.744 70.656 70.656z"  horiz-adv-x="1365" />

    
    <glyph glyph-name="fanhui1" unicode="&#59050;" d="M512-31C283.2-31 97 155.1 97 384S283.2 799 512 799s415-186.2 415-415-186.2-415-415-415z m0 778.9c-200.6 0-363.8-163.2-363.8-363.9S311.4 20.1 512 20.1 875.8 183.4 875.8 384 712.6 747.9 512 747.9z m111.4-532.5L454.8 384l168.6 168.6-36.2 36.2L382.5 384l204.7-204.7 36.2 36.1z"  horiz-adv-x="1024" />

    
    <glyph glyph-name="mimakejian4" unicode="&#58894;" d="M511.369 507.05c-58.971 0-104.068-45.096-104.068-104.067s45.097-104.067 104.068-104.067 104.067 45.095 104.067 104.067-45.096 104.068-104.067 104.068z m0-277.512c-97.13 0-173.446 76.316-173.446 173.445 0 97.13 76.316 173.446 173.446 173.446s173.445-76.316 173.445-173.446c0-97.129-76.316-173.445-173.445-173.445z m0 433.614c-173.446 0-322.609-107.536-381.58-260.169 58.971-152.632 208.134-260.168 381.58-260.168s322.608 107.536 381.58 260.168c-58.972 152.633-208.135 260.169-381.58 260.169z"  horiz-adv-x="1024" />

    
    <glyph glyph-name="mimabukejian1" unicode="&#58895;" d="M505.047 507.378L612.76 399.665v6.949c0 59.07-45.17 104.24-104.24 104.24 0.002-3.476 0.002-3.476-3.473-3.476z m-149.41-27.797l52.12-52.12v-24.323c0-59.068 45.17-104.238 104.239-104.238 6.95 0 13.898 0 24.322 3.475l52.119-52.12c-24.322-13.899-48.645-20.848-76.442-20.848-97.29 0-173.73 76.442-173.73 173.73 0 27.799 6.95 52.12 17.373 76.444zM164.535 670.684l79.916-79.916 13.899-13.898c-59.068-45.17-104.24-104.238-128.561-173.731 59.068-152.883 208.477-260.596 382.209-260.596 52.119 0 104.239 10.424 152.883 27.797l13.898-13.899 100.764-100.764 45.17 45.17-615.008 615.008-45.17-45.17z m347.462-93.814c97.29 0 173.73-76.442 173.73-173.731 0-20.848-3.474-45.17-13.898-62.544l100.764-100.763c52.12 45.17 93.815 100.763 118.138 163.307-59.069 152.884-208.477 260.597-382.21 260.597-48.644 0-93.814-10.423-138.985-24.322l76.442-76.442c20.85 10.424 45.171 13.898 66.019 13.898z"  horiz-adv-x="1024" />

    
    <glyph glyph-name="yanzhengma3" unicode="&#58884;" d="M835.1 695.1c-7.7-0.3-15.3-0.4-22.7-0.4-194.9 0-280.9 82.6-281.6 83.3l-19.4 19.7-19.6-19.7c-0.8-0.9-85-83.3-281.5-83.3-7.4 0-15 0.1-22.7 0.4l-27.4 0.9v-374.4c0-98 35.4-241 341.6-350.4l9.6-3.4 9.6 3.4c306.2 109.4 341.6 252.4 341.6 350.4V696l-27.5-0.9M481.2 224.79999999999995L304.8 378.4l46.8 37.3 93.8-68S574.9 479.4 700 541l17.9-19.8S561.6 393.8 481.2 224.79999999999995m0 0"  horiz-adv-x="1024" />

    
    <glyph glyph-name="fanhui2" unicode="&#58896;" d="M246.964706 417.129412L710.776471 883.952941c18.070588 18.070588 45.176471 18.070588 63.247058 0 18.070588-18.070588 18.070588-45.176471 0-63.247059L340.329412 384l433.694117-433.694118c18.070588-18.070588 18.070588-45.176471 0-63.247058-18.070588-18.070588-45.176471-18.070588-63.247058 0L246.964706 350.870588c-9.035294 9.035294-12.047059 21.082353-12.047059 33.129412 0 12.047059 3.011765 24.094118 12.047059 33.129412z"  horiz-adv-x="1024" />

    
    <glyph glyph-name="fanhui3" unicode="&#59107;" d="M457.258532 712.019949m-38.109334-38.109334l-304.874671-304.874671q-38.109334-38.109334-76.218668 0l0 0q-38.109334 38.109334 0 76.218668l304.874672 304.874671q38.109334 38.109334 76.218667 0l0 0q38.109334-38.109334 0-76.218668ZM381.039864 26.051939m-38.109333 38.109334l-304.874672 304.874671q-38.109334 38.109334 0 76.218668l0 0q38.109334 38.109334 76.218668 0l304.874671-304.874672q38.109334-38.109334 0-76.218667l0 0q-38.109334-38.109334-76.218667 0Z"  horiz-adv-x="1024" />

    
    <glyph glyph-name="daishouhuo2" unicode="&#59051;" d="M114.7 439.7V626.6c0 37.9 30.8 68.8 68.8 68.8h336.4c37.9 0 68.8-30.9 68.8-68.8v-443.7H402c-17.6 41.4-58.7 70.5-106.5 70.5s-88.9-29.1-106.5-70.5h-5.4c-37.9 0-68.8 30.9-68.8 68.8v35.9m-50.8 0v-35.9c0-64.7 51.6-117.5 115.9-119.4C182.8 71 233.5 22 295.5 22c62 0 112.7 49 115.6 110.2h249.3C663.3 70.9 714 22 776 22s112.7 49 115.6 110.2H960V376c0 31.9-10.9 63.1-30.8 88.1L839 577.2c-19.7 24.7-49.1 38.8-80.6 38.8h-119v10.6c0 65.9-53.6 119.5-119.5 119.5H183.5C117.6 746 64 692.4 64 626.6v-186.9m646.9-302c0 35.9 29.2 65 65 65 35.9 0 65-29.2 65-65 0-35.9-29.2-65-65-65s-65 29.1-65 65z m-41.5 45.2h-30.1V565.3h119c16.1 0 31-7.2 41-19.8l90.2-113.1c12.7-16 19.8-36 19.8-56.4v-193.1h-26.8c-17.6 41.4-58.7 70.5-106.5 70.5s-88.9-29.1-106.6-70.5z m-374 19.8c35.9 0 65-29.2 65-65 0-35.9-29.2-65-65-65s-65 29.2-65 65 29.2 65 65 65z m407.8 349.4c-14 0-25.3-11.3-25.3-25.3V378h148.8c14 0 25.3 11.3 25.3 25.3s-11.3 25.3-25.3 25.3h-98.1v98.1c0 14-11.4 25.4-25.4 25.4z"  horiz-adv-x="1024" />

    
    <glyph glyph-name="mima1" unicode="&#58885;" d="M768 448V574c0 141.3-115.6 258.5-256.9 258-141-0.5-255.1-114.9-255.1-256v-128h-64c-35.3 0-64-28.7-64-64v-384c0-35.3 28.7-64 64-64h640c35.3 0 64 28.7 64 64V384c0 35.3-28.7 64-64 64h-64zM544 165.5V64c0-17.6-14.4-32-32-32s-32 14.4-32 32V165.5c-37.2 13.2-64 48.8-64 90.5 0 52.9 43.1 96 96 96s96-43.1 96-96c0-41.7-26.8-77.3-64-90.5zM352 448V576c0 88.2 71.8 160 160 160s160-71.8 160-160v-128H352z"  horiz-adv-x="1024" />

    
    <glyph glyph-name="mimabukejian2" unicode="&#58887;" d="M504.08903111 524.37674667L626.64248889 401.82328889v7.90641778c0 67.20853333-51.39342222 118.60195555-118.60195556 118.60195555 0.00227555-3.95491555 0.00227555-3.95491555-3.95150222-3.95491555z m-169.99537778-31.62680889l59.30097778-59.30097778v-27.67416889c0-67.20625778 51.39342222-118.59968 118.60081778-118.59968 7.90755555 0 15.81283555 0 27.67303111 3.95377778l59.29984-59.30097778c-27.67303111-15.81397333-55.3472-23.72039111-86.97400889-23.72039111-110.6944 0-197.66613333 86.97400889-197.66613333 197.66613333 0 31.62908445 7.90755555 59.30097778 19.76661333 86.97628445zM116.66204445 710.18268445l90.92664888-90.9266489 15.81397334-15.81283555c-67.20625778-51.39342222-118.60195555-118.59968-146.27384889-197.66727111 67.20625778-173.94688 237.20049778-296.50033778 434.86890667-296.50033778 59.29984 0 118.60081778 11.86019555 173.94688 31.62680889l15.81283555-15.81397333 114.64704-114.64704 51.39342222 51.39342222-699.74243555 699.74243556-51.39342222-51.39342223z m395.33454222-106.73948445c110.6944 0 197.66613333-86.97400889 197.66613333-197.66727111 0-23.72039111-3.95264-51.39342222-15.81283555-71.16117334l114.64704-114.64590222c59.30097778 51.39342222 106.74062222 114.64590222 134.4147911 185.80707556-67.20739555 173.94801778-237.20049778 296.50147555-434.87004444 296.50147556-55.34606222 0-106.73948445-11.85905778-158.13404444-27.67303112l86.97400888-86.97400888c23.72266667 11.86019555 51.39456 15.81283555 75.11495112 15.81283555z"  horiz-adv-x="1024" />

    
    <glyph glyph-name="yanzhengma" unicode="&#58952;" d="M796.8 667.2c-141.6 0-233.6 57.6-268.8 84-9.6 7.2-22.4 7.2-31.2 0-34.4-27.2-126.4-84-268.8-84-3.2 0-12 0-20.8 0.8-14.4 0.8-27.2-11.2-27.2-25.6v-328c0-92.8 33.6-228.8 323.2-332.8 0 0 7.2-2.4 8.8-2.4 2.4 0 8.8 2.4 8.8 2.4 289.6 104 323.2 239.2 323.2 332.8v328c0 14.4-12 26.4-27.2 25.6-8.8-0.8-17.6-0.8-20-0.8zM483.2 221.6L342.4 344c-13.6 12-12.8 33.6 0.8 44.8 10.4 8 24.8 8.8 35.2 0.8l51.2-36.8c11.2-8 27.2-7.2 36.8 2.4 37.6 36 132 121.6 223.2 166.4l16.8-18.4c0.8-0.8-147.2-121.6-223.2-281.6z"  horiz-adv-x="1024" />

    
    <glyph glyph-name="mima2" unicode="&#58889;" d="M768.922 473.272H372.06c6.82 57.508-42.68 291.308 140.145 297.001 173.834 6.595 146.78-213.34 146.78-213.34l85.135-0.573s24.74 294.4-231.915 295.833C232.1 837.98 297.82 518.82 289.28 473.273h7.29c-55.889 0-101.211-45.343-101.211-101.213v-337.387c0-55.89 45.342-101.213 101.212-101.213h472.35c55.89 0 101.213 45.343 101.213 101.213V372.06c0 55.87-45.343 101.212-101.212 101.212zM566.477 178.975v-76.841c0-18.576-15.155-33.73-33.73-33.73-18.576 0-33.731 15.154-33.731 33.73v76.84c-20.091 11.695-33.73 33.22-33.73 58.123 0 37.274 30.207 67.482 67.48 67.482 37.274 0 67.482-30.208 67.482-67.482-0.02-24.904-13.66-46.428-33.771-58.122z"  horiz-adv-x="1024" />

    
    <glyph glyph-name="fanhui4" unicode="&#58935;" d="M316.3 384l289.2-289.2c16.7-16.7 16.7-43.7 0-60.3-16.7-16.7-43.7-16.7-60.3 0L225.8 353.8c-16.7 16.7-16.7 43.7 0 60.3l319.4 319.4c16.7 16.7 43.7 16.7 60.3 0 16.7-16.7 16.7-43.7 0-60.3L316.3 384z"  horiz-adv-x="1024" />

    
    <glyph glyph-name="youhuijuan" unicode="&#58977;" d="M910.848 422.912l5.12 1.024c22.528 6.144 38.4 26.624 38.912 49.664V660.992c0 33.28-27.136 60.416-60.416 60.416H129.536c-33.28 0-60.416-27.136-60.416-60.416v-185.856c0-25.6 17.92-47.104 43.008-51.712l2.048-0.512c19.968-3.584 34.304-20.992 34.304-41.472 0-19.968-14.336-37.376-36.352-41.472-24.576-4.608-42.496-26.112-43.008-51.2V102.4c0-33.28 27.136-60.416 60.416-60.416h764.928c33.28 0 60.416 27.136 60.416 60.416v185.856c0 25.6-18.432 47.104-45.056 52.224-19.968 3.584-34.304 20.992-34.304 41.472 0 19.968 14.848 37.888 35.328 40.96z m-10.752-136.704V102.4c0-3.072-2.56-5.12-5.632-5.632H409.088c0 1.536 1.024 2.56 1.024 4.096V220.16c0 17.408-14.336 31.744-31.744 31.744-17.408 0-31.744-14.336-31.744-31.744v-118.784c0-1.536 0.512-2.56 1.024-4.096H129.536c-3.072 0-5.632 2.56-5.632 5.632V286.72l2.048 0.512c45.056 9.216 77.312 49.152 77.312 94.72 0 46.592-33.28 86.528-79.36 95.232V660.992c0 3.072 2.56 5.12 5.632 5.632h217.6c0-1.536-1.024-2.56-1.024-4.096v-118.784c0-17.408 14.336-31.744 31.744-31.744 17.408 0 31.744 14.336 31.744 31.744V662.016c0 1.536-0.512 2.56-1.024 4.096h485.376c3.072 0 5.632-2.56 5.632-5.632v-183.296l-2.048-1.024c-45.056-9.216-77.312-48.64-77.312-94.72s32.768-86.016 79.872-95.232zM377.856 458.752c-17.408 0-31.744-14.336-31.744-31.744v-91.648c0-17.408 14.336-31.744 31.744-31.744 17.408 0 31.744 14.336 31.744 31.744v92.16c0 17.408-13.824 31.232-31.744 31.232z"  horiz-adv-x="1024" />

    
    <glyph glyph-name="youhuijuan1" unicode="&#59042;" d="M859.4 72.7H165.8c-41.6 0-75.5 33.9-75.5 75.5V311.9l19 1c38.6 2 68.9 33.9 68.9 72.6 0 38.7-30.3 70.6-68.9 72.6l-19 1V620.2c0 41.6 33.9 75.5 75.5 75.5h693.5c41.6 0 75.5-33.9 75.5-75.5v-163.5l-17.9-1.9c-37.1-3.8-65.1-34.9-65.1-72.3s28-68.5 65.1-72.3l17.9-1.9v-160.2c0.1-41.6-33.8-75.4-75.4-75.4zM130.3 275.5v-127.4c0-19.6 15.9-35.5 35.5-35.5h693.5c19.6 0 35.5 15.9 35.5 35.5V273.7c-20.6 5.6-39.3 17-53.8 33-18.8 20.8-29.2 47.6-29.2 75.7s10.4 54.9 29.2 75.7c14.6 16.1 33.2 27.4 53.8 33v129c0 19.6-15.9 35.5-35.5 35.5H165.8c-19.6 0-35.5-15.9-35.5-35.5v-124.7c50.6-11.3 87.9-56.4 87.9-109.9 0-53.6-37.3-98.7-87.9-110zM384.1 507.5c-11 0-20 9-20 20V670c0 11 9 20 20 20s20-9 20-20v-142.5c0-11-9-20-20-20zM384.1 80.5c-11 0-20 9-20 20V243c0 11 9 20 20 20s20-9 20-20v-142.5c0-11-9-20-20-20zM384.1 319.5c-11 0-20 9-20 20V428c0 11 9 20 20 20s20-9 20-20v-88.4c0-11.1-9-20.1-20-20.1z"  horiz-adv-x="1024" />

    
    <glyph glyph-name="youhuijuan2" unicode="&#59043;" d="M859.4 72.7H165.8c-41.6 0-75.5 33.9-75.5 75.5V311.9l19 1c38.6 2 68.9 33.9 68.9 72.6 0 38.7-30.3 70.6-68.9 72.6l-19 1V620.2c0 41.6 33.9 75.5 75.5 75.5h693.5c41.6 0 75.5-33.9 75.5-75.5v-163.5l-17.9-1.9c-37.1-3.8-65.1-34.9-65.1-72.3s28-68.5 65.1-72.3l17.9-1.9v-160.2c0.1-41.6-33.8-75.4-75.4-75.4zM130.3 275.5v-127.4c0-19.6 15.9-35.5 35.5-35.5h693.5c19.6 0 35.5 15.9 35.5 35.5V273.7c-20.6 5.6-39.3 17-53.8 33-18.8 20.8-29.2 47.6-29.2 75.7s10.4 54.9 29.2 75.7c14.6 16.1 33.2 27.4 53.8 33v129c0 19.6-15.9 35.5-35.5 35.5H165.8c-19.6 0-35.5-15.9-35.5-35.5v-124.7c50.6-11.3 87.9-56.4 87.9-109.9 0-53.6-37.3-98.7-87.9-110zM384.1 507.5c-11 0-20 9-20 20V670c0 11 9 20 20 20s20-9 20-20v-142.5c0-11-9-20-20-20zM384.1 80.5c-11 0-20 9-20 20V243c0 11 9 20 20 20s20-9 20-20v-142.5c0-11-9-20-20-20zM384.1 336.5c-11 0-20 9-20 20V425c0 11 9 20 20 20s20-9 20-20v-68.4c0-11.1-9-20.1-20-20.1z"  horiz-adv-x="1024" />

    
    <glyph glyph-name="daishouhuo3" unicode="&#58972;" d="M1020.50304 333.568c-11.60704 26.27072-152.91904 200.96-186.58816 214.72768-7.68 3.13856-20.39296 8.28416-176.77312 5.4016V701.50144c0 58.28096-47.4112 105.69216-105.69216 105.69216H113.44384c-58.28096 0-105.69216-47.4112-105.69216-105.69216v-538.11712A105.472 105.472 0 0 1 98.24768 58.88c2.33472-0.70144 4.75648-1.18784 7.31648-1.18784a25.6 25.6 0 0 1 25.6 25.6c0 13.55264-10.5728 24.54528-23.9104 25.43104l0.05632 0.512c-27.5712 3.072-48.36352 26.34752-48.36352 54.15424v538.112c0 30.04928 24.44288 54.49216 54.49216 54.49216h438.00576c30.04416 0 54.49216-24.44288 54.49216-54.49216v-538.11712c0-30.04928-24.44288-54.49728-54.49216-54.49728H405.02784v-0.00512a25.6 25.6 0 0 1 0-51.18976v-0.00512h146.42176c58.28096 0 105.69216 47.41632 105.69216 105.69728V502.49216c120.74496 2.22208 150.42048-0.6144 157.30688-1.77152 26.1632-18.37568 148.63872-165.65248 159.0784-187.47392 4.93568-14.18752 2.97472-90.89536-1.95584-153.64608l-0.08192-2.00704c0-30.03904-24.43264-54.4768-54.4768-54.4768v-0.03584c-13.96736-0.19968-25.23648-11.55584-25.23648-25.56416s11.26912-25.36448 25.23648-25.56416v-0.03584l0.24576 0.01024 0.11776-0.01024c0.12288 0 0.24064 0.03584 0.36352 0.03584 57.5744 0.39424 104.36608 47.03744 104.93952 104.57088 3.50208 44.75392 10.07616 149.31968-2.176 177.04448zM778.22976 446.42304c-36.70016 0-66.56-29.85984-66.56-66.56v-60.6464c0-36.70016 29.85984-66.56 66.56-66.56h139.15136a25.6 25.6 0 0 1 0 51.2h-139.15136c-8.46848 0-15.36 6.89152-15.36 15.36v60.6464c0 8.46848 6.89152 15.36 15.36 15.36h69.632v0.12288c13.55776 0.65024 24.38144 11.76064 24.38144 25.47712s-10.81856 24.82688-24.38144 25.47712v0.12288h-69.632zM258.0736 166.88128c-66.06848 0-119.81824-53.74976-119.81824-119.81312 0-66.06848 53.74976-119.81824 119.81824-119.81824 66.06848 0 119.81824 53.74976 119.81824 119.81824 0.00512 66.06336-53.74464 119.81312-119.81824 119.81312z m0-188.43648c-37.8368 0-68.61824 30.78656-68.61824 68.61824s30.78144 68.61312 68.61824 68.61312 68.61824-30.78144 68.61824-68.61312-30.78144-68.61824-68.61824-68.61824zM766.53056 172.00128c-66.06848 0-119.81824-53.74976-119.81824-119.81312 0-66.06848 53.74976-119.81824 119.81824-119.81824s119.81824 53.74976 119.81824 119.81824c0 66.06336-53.74976 119.81312-119.81824 119.81312z m0-188.43648c-37.8368 0-68.61824 30.78656-68.61824 68.61824s30.78656 68.61312 68.61824 68.61312 68.61824-30.78144 68.61824-68.61312-30.78144-68.61824-68.61824-68.61824zM279.98208 588.69248a25.6 25.6 0 0 1-25.6-25.6V432.64c0-36.70016 29.85984-66.56 66.56-66.56h93.42464v0.16896c13.32736 0.896 23.89504 11.8784 23.89504 25.43104s-10.56256 24.53504-23.89504 25.42592V417.28H320.94208c-8.46848 0-15.36 6.89152-15.36 15.36V563.09248a25.6 25.6 0 0 1-25.6 25.6z"  horiz-adv-x="1027" />

    
    <glyph glyph-name="phone_grey" unicode="&#58891;" d="M700.462814 815.809633L322.790172 815.809633c-44.511773 0-80.929194-36.418444-80.929194-80.930217l0-701.393511c0-44.511773 36.417421-80.930217 80.929194-80.930217l377.672642 0c44.512796 0 80.930217 36.418444 80.930217 80.930217L781.393032 734.879416C781.393032 779.3911889999999 744.975611 815.809633 700.462814 815.809633zM437.146687 774.819057l148.95859 0c7.355525 0 13.31833-5.962805 13.31833-13.31833 0-7.355525-5.961782-13.317307-13.31833-13.317307L437.146687 748.1834200000001c-7.355525 0-13.317307 5.961782-13.317307 13.317307C423.82938 768.857275 429.791162 774.819057 437.146687 774.819057zM511.627005 6.508482999999956c-29.797653 0-53.952796 24.157189-53.952796 53.954843 0 29.797653 24.155143 53.951773 53.952796 53.951773 29.79663 0 53.954843-24.15412 53.954843-53.951773C565.580824 30.666696 541.423635 6.508482999999956 511.627005 6.508482999999956zM727.440236 168.36789499999998L295.813774 168.36789499999998 295.813774 707.9019940000001l431.626461 0L727.440236 168.36789499999998z"  horiz-adv-x="1024" />

    
    <glyph glyph-name="yanzhengma1" unicode="&#59112;" d="M964.864 677.802667a72.874667 72.874667 0 0 1-57.514667 63.957333 1357.994667 1357.994667 0 0 0-185.984 42.794667A690.816 690.816 0 0 0 555.221333 881.664a76.032 76.032 0 0 1-88.832 0 435.84 435.84 0 0 0-167.424-96.469333c-57.728-23.893333-118.656-38.954667-180.864-44.714667-31.701333-5.12-55.466667-31.829333-56.874666-63.914667 0 0-1.92-160.426667-1.92-301.653333C59.306667 119.381333 360.917333-128 511.744-128c150.826667 0 406.485333 174.506667 447.36 499.072 10.24 191.744 3.157333 306.133333 3.157333 306.133333l2.56 0.64z m-164.266667-197.418667l-315.050666-297.173333c-14.208-13.482667-35.84-15.616-52.394667-5.12l-8.277333 7.082666-173.824 180.778667a43.392 43.392 0 0 0 63.872 58.837333l143.146666-150.186666 283.733334 268.373333a43.434667 43.434667 0 0 0 58.794666-63.872v1.28z"  horiz-adv-x="1024" />

    
    <glyph glyph-name="fuwu1" unicode="&#58903;" d="M832 133.76V128c0-96.64-83.84-176-192-189.44V-32c0 17.92-14.08 32-32 32H480c-17.92 0-32-14.08-32-32v-64c0-17.92 14.08-32 32-32h128c159.36 0 288 114.56 288 256v5.76M896 133.76c37.12 13.44 64 48.64 64 90.24V352c0 41.6-26.88 76.8-64 90.24V448c0 211.84-172.16 384-384 384S128 659.84 128 448v-5.76C90.88 428.8 64 393.6 64 352v-128c0-53.12 42.88-96 96-96s96 42.88 96 96V352c0 41.6-26.88 76.8-64 90.24V448c0 176.64 143.36 320 320 320s320-143.36 320-320v-5.76c-37.12-13.44-64-48.64-64-90.24v-128c0-41.6 26.88-76.8 64-90.24M192 224c0-17.92-14.08-32-32-32s-32 14.08-32 32V352c0 17.92 14.08 32 32 32s32-14.08 32-32v-128z m704 0c0-17.92-14.08-32-32-32s-32 14.08-32 32V352c0 17.92 14.08 32 32 32s32-14.08 32-32v-128z"  horiz-adv-x="1024" />

    
    <glyph glyph-name="fanhui5" unicode="&#58892;" d="M736-64c-9 0-18.1 3.2-25 9.6L263 360.8c-13.8 12.8-13.8 33.6 0 46.4L711 822.4c13.8 12.8 36.2 12.8 50 0 13.8-12.8 13.8-33.6 0-46.4L338 384l423-392c13.8-12.8 13.8-33.6 0-46.4-6.9-6.4-16-9.6-25-9.6z"  horiz-adv-x="1024" />

    
    <glyph glyph-name="fanhui6" unicode="&#58941;" d="M742.126933-57.9584a40.209067 40.209067 0 0 0-25.873066 9.352533L256 360.925867a29.696 29.696 0 0 0 0 45.738666L716.253867 816.128a39.936 39.936 0 0 0 51.268266 0c14.336-12.424533 14.336-33.245867 0-45.738667L333.141333 384l434.3808-386.4576c14.336-12.424533 14.336-33.314133 0-45.738667a38.5024 38.5024 0 0 0-25.3952-9.762133z"  horiz-adv-x="1024" />

    


  </font>
</defs>
</svg>
